HIERARCHY
ROOT Hips
{
	OFFSET 0.000000 0.000000 0.000000
	CHANNELS 6 Xposition Yposition Zposition Xrotation Yrotation Zrotation
	JOINT Chest
	{
		OFFSET 0.000000 0.009282 11.569106
		CHANNELS 3 Xrotation Yrotation Zrotation
		JOINT Chest2
		{
			OFFSET 0.000000 -0.016863 9.269641
			CHANNELS 3 Xrotation Yrotation Zrotation
			JOINT Chest3
			{
				OFFSET 0.000000 0.000000 8.374491
				CHANNELS 3 Xrotation Yrotation Zrotation
				JOINT Chest4
				{
					OFFSET 0.000000 0.000000 8.374493
					CHANNELS 3 Xrotation Yrotation Zrotation
					JOINT Neck
					{
						OFFSET 0.000000 -0.000001 12.152554
						CHANNELS 3 Xrotation Yrotation Zrotation
						JOINT Head
						{
							OFFSET 0.000000 -0.040100 7.802319
							CHANNELS 3 Xrotation Yrotation Zrotation
							End Site
							{
								OFFSET 0.000000 -0.020946 14.853096
							}
						}
					}
					JOINT RightCollar
					{
						OFFSET -2.894404 0.000000 6.791374
						CHANNELS 3 Xrotation Yrotation Zrotation
						JOINT RightShoulder
						{
							OFFSET -13.574684 0.000000 0.000000
							CHANNELS 3 Xrotation Yrotation Zrotation
							JOINT RightElbow
							{
								OFFSET -23.923903 0.000000 0.000000
								CHANNELS 3 Xrotation Yrotation Zrotation
								JOINT RightWrist
								{
									OFFSET -19.846718 -0.012765 0.000000
									CHANNELS 3 Xrotation Yrotation Zrotation
									End Site
									{
										OFFSET -14.973145 0.000000 0.000000
									}
								}
							}
						}
					}
					JOINT LeftCollar
					{
						OFFSET 2.894404 0.000000 6.791374
						CHANNELS 3 Xrotation Yrotation Zrotation
						JOINT LeftShoulder
						{
							OFFSET 13.574684 0.000000 0.000000
							CHANNELS 3 Xrotation Yrotation Zrotation
							JOINT LeftElbow
							{
								OFFSET 23.923903 0.000000 0.000000
								CHANNELS 3 Xrotation Yrotation Zrotation
								JOINT LeftWrist
								{
									OFFSET 19.846718 -0.012765 0.000000
									CHANNELS 3 Xrotation Yrotation Zrotation
									End Site
									{
										OFFSET 14.973145 0.000000 0.000000
									}
								}
							}
						}
					}
				}
			}
		}
	}
	JOINT RightHip
	{
		OFFSET -9.469263 -0.004642 0.045487
		CHANNELS 3 Xrotation Yrotation Zrotation
		JOINT RightKnee
		{
			OFFSET 0.000000 -0.002666 -40.478676
			CHANNELS 3 Xrotation Yrotation Zrotation
			JOINT RightAnkle
			{
				OFFSET 0.000000 -0.049110 -35.224068
				CHANNELS 3 Xrotation Yrotation Zrotation
				JOINT RightToe
				{
					OFFSET 0.000000 -12.539530 -6.151390
					CHANNELS 3 Xrotation Yrotation Zrotation
					End Site
					{
						OFFSET 0.000000 -5.044995 -1.291870
					}
				}
			}
		}
	}
	JOINT LeftHip
	{
		OFFSET 9.469263 -0.004642 0.045487
		CHANNELS 3 Xrotation Yrotation Zrotation
		JOINT LeftKnee
		{
			OFFSET 0.000000 -0.002666 -40.478676
			CHANNELS 3 Xrotation Yrotation Zrotation
			JOINT LeftAnkle
			{
				OFFSET 0.000000 -0.049110 -35.224068
				CHANNELS 3 Xrotation Yrotation Zrotation
				JOINT LeftToe
				{
					OFFSET 0.000000 -12.539530 -6.151390
					CHANNELS 3 Xrotation Yrotation Zrotation
					End Site
					{
						OFFSET 0.000000 -5.044995 -1.291870
					}
				}
			}
		}
	}
}
MOTION
Frames: 9
Frame Time: 0.016667
-10.855446 -5.871789 83.010330 3.913356 7.188732 -113.090099 2.281761 0.095423 -0.616869 1.003797 0.022590 -0.260682 1.003796 0.022590 -0.260687 0.752836 0.017371 -0.195481 17.982204 -1.674544 -1.461348 -2.820036 -2.567070 -3.228252 -1.657936 -1.817733 2.359601 17.533697 -56.966158 70.465504 25.189355 -45.585249 87.079591 -47.403729 4.676753 42.734998 3.055471 5.142512 -9.757981 -0.179211 48.160555 -56.815699 40.227854 22.276365 -64.935640 -8.217873 40.955973 45.798706 10.390444 -0.549714 -2.488954 3.212407 -0.170189 0.576714 -5.644632 -0.760488 0.120825 0.117427 0.184122 0.004571 10.645267 -0.399168 -0.072969 2.013900 -0.516302 2.416180 -4.973676 0.752030 -0.733573 0.163462 0.135314 -0.018784 
-10.850317 -5.897800 83.023048 3.969466 7.209159 -112.947792 2.303486 0.041823 -0.477274 1.016919 -0.005318 -0.195902 1.016918 -0.005319 -0.195901 0.762690 -0.003663 -0.146936 17.976035 -1.810666 -1.673670 -2.836730 -2.744229 -3.661664 -1.847750 -1.730016 2.367900 14.977688 -57.241541 68.269114 16.725952 -37.123594 73.967609 -57.226180 15.959458 56.054454 2.954340 5.130570 -9.979731 -0.791083 47.110987 -55.379686 42.989149 24.697324 -72.697405 -16.033669 43.350524 36.386743 10.453986 -0.574522 -2.676002 3.174286 -0.210135 0.619303 -5.609527 -0.867739 0.125096 0.088524 0.228610 0.013110 10.576274 -0.420875 -0.180021 2.190567 -0.568380 2.335066 -5.065588 0.666147 -0.697535 0.166114 0.180258 -0.020150 
-10.870253 -5.922119 83.050240 4.051226 7.370940 -112.641820 2.274627 0.084854 -0.359054 1.010231 0.018469 -0.142063 1.010231 0.018469 -0.142062 0.757669 0.014086 -0.106513 18.137709 -1.990010 -1.855806 -2.543680 -3.015215 -4.050627 -2.295115 -1.691025 1.975894 9.613497 -58.337131 63.193006 16.631272 -28.980554 62.990887 -59.507190 23.384541 58.871422 2.999227 5.157657 -10.313694 0.691700 46.077262 -55.128690 42.456152 28.230606 -80.233556 -23.095412 43.039443 27.595060 10.689624 -0.606058 -2.994075 3.143677 -0.229637 0.680895 -5.573737 -0.966905 0.083004 0.021787 0.247505 0.020998 10.656028 -0.445209 -0.305190 2.315138 -0.616977 2.165084 -5.049234 0.631717 -0.717824 0.103939 0.171873 -0.019822 
-10.910891 -5.953407 83.066895 4.125590 7.630967 -112.220404 2.325581 0.207412 -0.330918 1.034176 0.074392 -0.130178 1.034176 0.074391 -0.130177 0.775616 0.056014 -0.097506 18.285654 -2.246954 -1.955448 -2.280031 -3.455510 -4.314602 -2.587888 -1.609735 1.673416 8.558381 -56.708520 60.421247 17.315402 -25.671165 54.607847 -47.384769 29.941053 51.103622 2.858339 5.351193 -10.603181 3.263211 47.097317 -56.101302 41.983172 34.458513 -85.669874 -25.888526 38.938823 19.007296 11.025294 -0.621858 -3.254970 3.139909 -0.239821 0.657559 -5.602084 -1.009262 -0.046535 -0.018527 0.210678 0.029161 10.841685 -0.458502 -0.426567 2.405023 -0.640444 1.964811 -5.046925 0.623175 -0.803197 0.074147 0.134002 -0.021677 
-10.941341 -6.001733 83.061485 4.140522 7.882207 -111.749517 2.389090 0.289296 -0.442031 1.060780 0.114130 -0.185993 1.060782 0.114130 -0.185988 0.795551 0.085920 -0.139293 18.326111 -2.403897 -1.983706 -2.212066 -3.733844 -4.417366 -1.985983 -1.375988 1.870080 8.603570 -53.094291 58.641607 17.149690 -26.581223 51.464823 -23.841844 34.000914 28.821144 2.756944 5.874820 -10.549688 4.450458 49.728056 -57.192029 41.991269 41.075269 -89.441361 -28.008881 34.426353 7.475927 11.264879 -0.583089 -3.290713 3.265395 -0.291822 0.483380 -5.724724 -0.933364 -0.288301 -0.025965 0.107452 0.030270 10.986522 -0.439848 -0.515359 2.484977 -0.638844 1.820632 -5.056754 0.637730 -1.015139 0.079268 0.077849 -0.023570 
-10.929465 -6.066236 83.043800 4.096244 8.075532 -111.334208 2.362384 0.247368 -0.760602 1.047671 0.102683 -0.340548 1.047672 0.102683 -0.340548 0.785697 0.077597 -0.255234 18.254900 -2.276367 -1.910732 -2.338280 -3.523023 -4.243628 -0.862765 -1.088962 2.378679 9.545551 -49.446663 58.336454 18.416227 -25.559830 50.958918 -4.163007 25.127486 7.357341 2.801516 6.659681 -10.023633 3.767307 52.724880 -57.042239 42.517760 44.927741 -91.333488 -37.492233 28.817326 -3.080096 11.294626 -0.508389 -3.044720 3.590103 -0.360768 0.196607 -5.918819 -0.721905 -0.643880 -0.022306 -0.061546 0.029351 11.025072 -0.398350 -0.518958 2.584225 -0.602717 1.726655 -5.077668 0.662461 -1.283168 0.108671 0.017355 -0.024703 
-10.865303 -6.135794 83.030472 4.033160 8.199749 -111.102944 2.451136 0.104855 -1.168023 1.085630 0.047601 -0.540308 1.085630 0.047601 -0.540303 0.814182 0.036661 -0.405147 17.980692 -1.907368 -1.762999 -2.831896 -2.890892 -3.857160 -0.558687 -0.845813 2.707447 9.802512 -47.820101 58.014691 23.774347 -23.839196 54.564619 7.898576 6.952713 -4.259922 2.635414 7.259780 -9.468678 3.598042 53.874777 -57.077750 41.740932 47.024114 -92.475857 -45.979905 17.979997 -17.990676 11.118579 -0.429453 -2.568379 4.077602 -0.409929 -0.043759 -6.133681 -0.437568 -1.099062 -0.017727 -0.245435 0.033600 10.976599 -0.351583 -0.388785 2.693217 -0.545054 1.646924 -5.110835 0.696909 -1.530284 0.158864 -0.039337 -0.023808 
-10.763201 -6.217747 83.033752 3.985031 8.217199 -111.143051 2.639898 -0.086906 -1.529904 1.174245 -0.027520 -0.719949 1.174246 -0.027520 -0.719950 0.880719 -0.019256 -0.540020 17.606991 -1.475332 -1.560945 -3.510433 -2.161132 -3.349514 -1.287451 -0.602017 2.694879 9.289208 -48.179700 57.488220 31.264153 -22.746538 61.236771 14.705503 -17.270495 -8.165316 2.562647 7.429439 -9.033645 3.500172 53.404450 -57.553353 36.254241 45.141161 -88.617743 -43.410101 -2.156243 -39.459184 10.740768 -0.339001 -2.053046 4.657235 -0.472304 -0.104508 -6.275581 -0.168794 -1.493929 -0.058291 -0.373038 0.037562 10.844225 -0.303336 -0.179404 2.786205 -0.480426 1.615453 -5.073929 0.714468 -1.624391 0.148535 -0.083625 -0.021417 
-10.658135 -6.305716 83.054276 3.957153 8.173250 -111.423533 2.801039 -0.208707 -1.561506 1.251472 -0.073219 -0.743421 1.251471 -0.073219 -0.743420 0.938695 -0.053392 -0.557714 17.338748 -1.240825 -1.480298 -4.001477 -1.754664 -3.126241 -1.582791 -0.475042 2.794979 7.151583 -49.443121 56.640563 39.515390 -23.303586 70.098074 13.933343 -38.133568 -7.504532 1.896250 7.270065 -8.885169 4.358247 51.807094 -59.047675 28.627423 38.374455 -77.831290 -42.001705 -26.791965 -53.914887 10.323107 -0.204265 -1.778343 5.138160 -0.567489 0.071823 -6.307310 0.006212 -1.662630 -0.111343 -0.401588 0.038885 10.703953 -0.217806 -0.041739 2.838335 -0.457760 1.769536 -4.974886 0.730359 -1.630433 0.082503 -0.109692 -0.019342 
